<svg height="512pt" viewBox="-36 0 512 512.00022" width="512pt" xmlns="http://www.w3.org/2000/svg"><path d="m317.898438 139.980469s41.460937-11.285157 61.121093 12.648437c19.664063 23.9375 8.777344 54.257813 1.9375 61.839844.855469-.96875-76.9375 0-76.9375 0zm0 0" fill="#b24e2f"/><path d="m312.589844 60.464844c-3.617188-14.382813-18.402344-22.113282-31.878906-17.78125 4.109374-12.746094-2.605469-26.824219-15.796876-31.308594-11.726562-3.980469-24.886718 1.484375-30.363281 12.59375-3.980469 8.070312-3.203125 17.117188 1.117188 24.148438 3.011719 4.898437 2.484375 11.171874-1.582031 15.238281l-36.347657 36.347656 25.933594 25.933594 36.546875-36.546875c3.976562-3.976563 10.121094-4.472656 14.886719-1.488282 7.242187 4.53125 16.6875 5.296876 25.070312.832032 9.976563-5.3125 15.171875-17.003906 12.414063-27.96875zm0 0" fill="#a4e7ff"/><path d="m205.570312 191.546875c.394532-18.1875 9.460938-35.089844 24.289063-45.628906l14.441406-10.257813c9.539063-6.78125 11.777344-20.007812 5-29.550781-3.140625-4.417969-7.667969-7.265625-12.566406-8.375-5.5625-1.257813-10.328125-5.441406-11.097656-11.09375-.941407-6.953125-8.375-12.566406-8.375-12.566406-8.359375-8.359375-20.800781-7.3125-27.644531 2.324219l-12.792969 18c-10.164063 14.304687-26.476563 23.246093-44.019531 23.390624-18.878907.152344-37.710938 7.671876-51.816407 22.546876-25.851562 27.257812-26.300781 70.453124-.984375 98.207031 27.9375 30.632812 75.453125 31.457031 104.441406 2.46875 13.691407-13.695313 20.734376-31.519531 21.125-49.464844zm0 0" fill="#b24e2f"/><path d="m57.902344 8.28125c-14.382813 3.617188-22.113282 18.398438-17.777344 31.878906-12.75-4.113281-26.828125 2.601563-31.3125 15.796875-3.980469 11.726563 1.484375 24.882813 12.589844 30.359375 8.074218 3.980469 17.121094 3.207032 24.152344-1.113281 4.898437-3.011719 11.175781-2.484375 15.242187 1.582031l36.34375 36.34375 25.9375-25.933594-36.550781-36.542968c-3.972656-3.976563-4.46875-10.121094-1.488282-14.886719 4.53125-7.238281 5.300782-16.6875.835938-25.066406-5.316406-9.980469-17.007812-15.175781-27.972656-12.417969zm0 0" fill="#a4e7ff"/><path d="m188.992188 115.296875c-18.1875-.394531-35.09375-9.460937-45.632813-24.289063l-10.257813-14.441406c-6.777343-9.539062-20.007812-11.777344-29.546874-5-4.421876 3.144532-7.269532 7.667969-8.378907 12.566406-1.257812 5.5625-5.445312 10.328126-11.09375 11.09375-6.953125.945313-12.566406 8.378907-12.566406 8.378907-8.359375 8.359375-7.3125 20.796875 2.320313 27.644531l18.003906 12.792969c14.300781 10.164062 23.246094 26.472656 23.390625 44.019531.152343 18.878906 7.667969 37.707031 22.546875 51.8125 27.261718 25.851562 70.453125 26.300781 98.210937.984375 30.636719-27.9375 31.457031-75.449219 2.46875-104.4375-13.695312-13.691406-31.519531-20.734375-49.464843-21.125zm0 0" fill="#dd6642"/><path d="m432.746094 57.898438c-3.617188-14.378907-18.398438-22.109376-31.875-17.777344 4.109375-12.746094-2.605469-26.828125-15.800782-31.308594-11.726562-3.984375-24.882812 1.484375-30.359374 12.589844-3.980469 8.070312-3.207032 17.117187 1.117187 24.148437 3.007813 4.902344 2.480469 11.175781-1.582031 15.242188l-36.347656 36.347656 25.933593 25.933594 36.546875-36.546875c3.972656-3.976563 10.121094-4.472656 14.886719-1.488282 7.238281 4.53125 16.6875 5.296876 25.066406.835938 9.980469-5.316406 15.171875-17.007812 12.414063-27.976562zm0 0" fill="#a4e7ff"/><path d="m325.726562 188.984375c.398438-18.1875 9.460938-35.089844 24.292969-45.628906l14.4375-10.257813c9.542969-6.78125 11.78125-20.007812 5-29.546875-3.140625-4.421875-7.664062-7.269531-12.566406-8.378906-5.5625-1.257813-10.328125-5.441406-11.09375-11.09375-.941406-6.949219-8.375-12.566406-8.375-12.566406-8.359375-8.359375-20.800781-7.3125-27.648437 2.324219l-12.789063 18c-10.164063 14.304687-26.476563 23.246093-44.023437 23.390624-18.878907.15625-37.707032 7.671876-51.8125 22.546876-25.851563 27.261718-26.300782 70.453124-.984376 98.207031 27.9375 30.632812 75.453126 31.457031 104.441407 2.46875 13.691406-13.695313 20.734375-31.519531 21.121093-49.464844zm0 0" fill="#e7896e"/><path d="m45.15625 207.320312 39.996094 256.648438c3.636718 23.332031 23.730468 40.53125 47.339844 40.53125h176.011718c23.613282 0 43.703125-17.199219 47.339844-40.53125l39.996094-256.648438zm0 0" fill="#ff938a"/><path d="m235.867188 283.207031c52.570312-11.617187 82.03125-34.148437 82.03125-34.148437v-41.734375h-272.742188l39.996094 256.644531c3.636718 23.332031 23.730468 40.535156 47.339844 40.535156h106.835937c-41.507813-47.6875-56.148437-100.996094-60.414063-142.566406-3.78125-36.824219 20.804688-70.746094 56.953126-78.730469zm0 0" fill="#fb695b"/><path d="m393.089844 249.054688h-345.183594c-17.652344 0-31.964844-14.308594-31.964844-31.960938 0-17.65625 14.3125-31.964844 31.964844-31.964844h345.183594c17.65625 0 31.964844 14.308594 31.964844 31.964844 0 17.652344-14.308594 31.960938-31.964844 31.960938zm0 0" fill="#f9ee80"/><path d="m113.339844 217.09375c0-17.65625 14.308594-31.964844 31.964844-31.964844h-97.398438c-17.652344 0-31.964844 14.308594-31.964844 31.964844 0 17.652344 14.3125 31.960938 31.964844 31.960938h97.398438c-17.65625 0-31.964844-14.308594-31.964844-31.960938zm0 0" fill="#eedb00"/><path d="m297.105469 376.777344c0 42.308594-34.296875 76.609375-76.605469 76.609375s-76.609375-34.300781-76.609375-76.609375 34.300781-76.605469 76.609375-76.605469 76.605469 34.296875 76.605469 76.605469zm0 0" fill="#fffcdc"/><path d="m143.890625 376.777344c0 36.703125 25.832031 67.382812 60.296875 74.867187-15.546875-31.671875-22.542969-63.105469-25.273438-89.707031-2.308593-22.476562 5.960938-43.882812 20.96875-58.957031-32.292968 9.003906-55.992187 38.632812-55.992187 73.796875zm0 0" fill="#f9ee80"/><path d="m267.90625 389.117188c4.144531 0 7.5-3.355469 7.5-7.5v-12.449219c0-4.140625-3.355469-7.5-7.5-7.5s-7.5 3.359375-7.5 7.5v12.449219c0 4.144531 3.355469 7.5 7.5 7.5zm0 0"/><path d="m173.089844 361.667969c-4.140625 0-7.5 3.359375-7.5 7.5v12.449219c0 4.144531 3.359375 7.5 7.5 7.5 4.144531 0 7.5-3.355469 7.5-7.5v-12.449219c0-4.144531-3.355469-7.5-7.5-7.5zm0 0"/><path d="m238.160156 382.359375c2.273438-3.460937 1.308594-8.109375-2.152344-10.382813-1.269531-.835937-6.882812-2.996093-10.386718 2.148438-1.679688 2.46875-4.128906 2.765625-5.121094 2.765625-.996094 0-3.484375-.269531-5.125-2.765625-2.273438-3.460938-6.925781-4.421875-10.386719-2.148438-3.460937 2.273438-4.425781 6.921876-2.148437 10.382813 3.917968 5.96875 10.519531 9.53125 17.660156 9.53125 7.136719 0 13.738281-3.5625 17.660156-9.53125zm0 0"/><path d="m397.351562 177.859375c-1.179687-11.101563-7.160156-30.382813-25.78125-40.894531 14.988282-13.207032 8.710938-30.199219 5.082032-36.109375l9.027344-9.023438c1.429687-1.429687 3.734374-1.609375 5.605468-.4375 9.96875 6.242188 22.144532 6.652344 32.570313 1.097657 12.941406-6.890626 19.738281-22.210938 16.164062-36.421876-2.230469-8.863281-9.023437-22.851562-30.484375-24.617187-.464844-13.125-8.953125-25.292969-22.050781-29.742187-15.34375-5.210938-32.324219 1.828124-39.5 16.375-4.976563 10.085937-4.429687 21.820312 1.453125 31.394531 1.234375 2.007812 1.03125 4.480469-.496094 6.007812l-8.597656 8.597657c-11.082031-8.742188-19.617188-5.441407-20.441406-5.285157-.015625-.054687-.027344-.113281-.039063-.167969-2.230469-8.863281-10.039062-23.757812-30.484375-24.621093-.46875-13.121094-8.953125-25.289063-22.054687-29.738281-15.34375-5.210938-32.324219 1.828124-39.5 16.375-4.972657 10.085937-4.429688 21.820312 1.453125 31.394531 1.234375 2.011719 1.03125 4.484375-.492188 6.011719l-8.601562 8.597656c-5.195313-4.132813-11.578125-6.164063-17.941406-5.636719-7.363282.621094-14.195313 4.644531-18.738282 11.039063 0 0-10.925781 18.539062-21.199218 27.125-10.640626-8.214844-23.089844-26.953126-23.089844-26.953126-8.777344-12.351562-25.613282-15.652343-38.355469-7.851562l-9.023437-9.023438c-1.429688-1.429687-1.609376-3.730468-.4375-5.605468 2.195312-3.511719 1.132812-8.136719-2.378907-10.335938-3.511719-2.195312-8.140625-1.132812-10.335937 2.378906-4.902344 7.832032-3.855469 17.769532 2.542968 24.167969l9.324219 9.324219c-1.207031 2.25-.632812 6.90625-4.328125 10.601562-3.695312 3.695313-8.695312 3.378907-11.015625 4.707032l-9.105469-9.109375c-6.460937-6.457031-16.523437-7.550781-24.472656-2.667969-5.152344 3.167969-11.476562 3.457031-16.90625.78125-7.691406-3.792969-11.5625-13.117188-8.808594-21.222656 3.0625-9.011719 12.886719-13.980469 21.90625-11.070313 2.679688.863281 5.613282.152344 7.605469-1.832031 1.988281-1.988281 2.699219-4.925781 1.835938-7.601562-1.46875-4.578126-.972657-9.625 1.367187-13.839844 2.363282-4.253906 6.304688-7.261719 11.101563-8.46875 6.546875-1.644532 13.761719.859375 17.949219 6.238281 2.546874 3.265625 7.257812 3.851563 10.527343 1.308594 3.265625-2.542969 3.851563-7.257813 1.308594-10.523438-7.902344-10.152343-21.03125-14.695312-33.441406-11.574219-8.863281 2.230469-21.1875 10.375-24.621094 30.484376-13.121094.46875-25.292969 8.953124-29.742187 22.050781-5.210938 15.34375 1.828124 32.328125 16.378906 39.5 10.085937 4.972656 21.820312 4.429687 31.390625-1.453125 2.015625-1.234375 4.484375-1.03125 6.011719.496094l8.597656 8.597656c-4.132813 5.195312-5.984375 11.570312-5.632813 17.941406.859375 15.640625 13.578125 20.542969 13.578125 20.542969-9.078125 10.984375-15.0625 24.300781-17.269531 38.460937 0 0-46.324219-1.734375-46.324219 39.464844 0 20.855469 16.269532 37.976562 36.78125 39.359375l23.671875 151.875c.574219 3.699219 3.183594 7.253906 8.566407 6.253906 4.070312-.753906 6.890624-4.472656 6.253906-8.566406l-23.296875-149.460937h295.632812c4.144531 0 7.5-3.355469 7.5-7.5 0-4.140626-3.355469-7.5-7.5-7.5h-308.144531c-13.488281 0-24.464844-10.972657-24.464844-24.460938 0-13.492188 10.976563-24.464844 24.464844-24.464844h345.1875c13.488281 0 24.464844 10.972656 24.464844 24.464844 0 13.488281-10.976563 24.460938-24.464844 24.460938 0 0-10.292969-.78125-11.167969 6.34375l-33.492187 214.914062c-3.089844 19.8125-19.882813 34.1875-39.929688 34.1875h-176.011718c-20.046876 0-36.839844-14.378906-39.929688-34.1875l-4.226562-27.117188c-.636719-4.089843-4.464844-6.890624-8.5625-6.253906-4.09375.636719-6.894532 4.472656-6.257813 8.566406l4.230469 27.113282c4.230468 27.164062 27.257812 46.878906 54.75 46.878906h176.007812c27.492188 0 50.515625-19.714844 54.75-46.875l32.519532-208.667969c20.515624-1.386719 36.785156-18.507812 36.785156-39.363281-.003906-20.324219-15.441406-37.101562-35.207032-39.234375zm-15.132812-.230469h-47.375c5.582031-20.03125 22.652344-30.382812 22.652344-30.382812 19.246094 7.050781 23.625 22.878906 24.722656 30.382812zm-22.671875-111.53125c6.457031-6.457031 7.554687-16.519531 2.667969-24.472656-3.167969-5.152344-3.457032-11.472656-.777344-16.902344 3.792969-7.695312 13.113281-11.5625 21.222656-8.808594 9.011719 3.0625 13.976563 12.890626 11.070313 21.90625-.863281 2.679688-.15625 5.613282 1.832031 7.601563 1.988281 1.992187 4.921875 2.703125 7.601562 1.839844 4.582032-1.472657 9.625-.972657 13.84375 1.367187 4.253907 2.359375 7.257813 6.300782 8.464844 11.101563 1.917969 7.617187-1.726562 15.828125-8.667968 19.523437-5.628907 3-12.195313 2.785156-17.5625-.574218-7.832032-4.902344-17.769532-3.851563-24.167969 2.542968l-9.324219 9.324219c-2.25-1.203125-6.730469-.457031-10.601562-4.328125-3.871094-3.871094-3.378907-8.691406-4.707032-11.011719zm-31.113281 5.996094c9.605468 1.296875 9.535156 10.050781 9.933594 12.992188 1.136718 8.382812 7.882812 15.515624 16.867187 17.398437 10.160156 2.132813 11.058594 12.015625 10.449219 15.621094s-2.589844 6.757812-5.570313 8.878906c0 0-36.851562 17.410156-40.652343 50.644531h-129.746094c1.972656-13.023437 7.816406-25.144531 16.875-34.695312 12.21875-12.882813 28.707031-20.0625 46.433594-20.207032 19.65625-.160156 38.375-10.085937 50.074218-26.546874l12.789063-18c2.011719-2.832032 4.894531-7.121094 12.546875-6.085938zm-69.941406 35.234375c-.566407-1.351563-1.234376-2.660156-1.996094-3.910156l9.027344-9.023438c1.429687-1.429687 3.730468-1.605469 5.601562-.4375 3.027344 1.894531 6.257812 3.242188 9.578125 4.058594-6.519531 4.988281-14.175781 8.230469-22.210937 9.3125zm-19.101563-38.667969c6.457031-6.457031 7.554687-16.519531 2.667969-24.472656-3.167969-5.152344-3.460938-11.472656-.78125-16.90625 3.792968-7.691406 13.113281-11.558594 21.222656-8.804688 9.015625 3.0625 13.980469 12.886719 11.070312 21.90625-.859374 2.675782-.152343 5.613282 1.832032 7.601563 1.988281 1.988281 4.925781 2.699219 7.601562 1.839844 4.582032-1.476563 9.394532-.5 13.84375 1.367187 8.425782 3.53125 9 14.109375 8.960938 15.648438-.757813.832031-11.6875 16.078125-11.6875 16.078125-5 1.757812-10.457032 1.191406-15.039063-1.675781-7.828125-4.902344-17.769531-3.855469-24.164062 2.542968l-9.324219 9.324219c-2.25-1.207031-5.28125.996094-10.601562-4.328125-5.324219-5.324219-3.382813-8.695312-4.710938-11.015625zm-56.453125 30.085938 12.792969-18.003906c2.011719-2.828126 5.117187-7.523438 10.875-7 9.328125.847656 11.214843 10.964843 11.601562 13.90625 2.273438 17.320312 19.613281 15.914062 23.410157 20.972656-7.390626 1.101562-14.511719 3.226562-21.214844 6.296875-8.953125-7.414063-32.117188-5.320313-43.449219-8.949219 2.15625-2.253906 4.160156-4.65625 5.984375-7.222656zm-97.851562 3.914062c8.382812-1.136718 15.378906-7.914062 17.40625-16.871094.738281-3.277343 2.660156-6.15625 5.402343-8.105468 6.15625-4.375 14.722657-2.925782 19.089844 3.226562l10.261719 14.4375c11.894531 16.742188 31.179687 27.003906 51.582031 27.445313 5.136719.113281 10.257813.863281 15.21875 2.179687-18.886719 15.03125-27.40625 35.761719-29.476563 52.65625h-52.828124c-2.882813-15.828125-11.949219-30.03125-25.558594-39.703125l-18.003906-12.789062c-2.832032-2.011719-6.28125-5.675781-4.800782-12.894531 1.410156-6.859376 8.867188-9.195313 11.707032-9.582032zm-.792969 45.21875s17.773437 9.335938 22.117187 29.75h-36.417968c2.121093-10.996094 7.046874-21.277344 14.300781-29.75zm0 0"/><path d="m304.605469 376.777344c0-46.375-37.730469-84.105469-84.105469-84.105469-46.378906 0-84.109375 37.730469-84.109375 84.105469s37.730469 84.105468 84.109375 84.105468c46.375 0 84.105469-37.730468 84.105469-84.105468zm-153.214844 0c0-38.105469 31-69.105469 69.109375-69.105469 38.105469 0 69.105469 31 69.105469 69.105469 0 38.105468-31 69.105468-69.105469 69.105468-38.109375 0-69.109375-31-69.109375-69.105468zm0 0"/></svg>